<?xml version="1.0" encoding="UTF-8"?>
<svg width="177px" height="42px" viewBox="0 0 177 42" version="1.1" xmlns="http://www.w3.org/2000/svg" xmlns:xlink="http://www.w3.org/1999/xlink">
    <!-- Generator: Sketch 59.1 (86144) - https://sketch.com -->
    <title>Group 70</title>
    <desc>Created with Sketch.</desc>
    <g id="Web-pages" stroke="none" stroke-width="1" fill="none" fill-rule="evenodd">
        <g id="Extra-Modules" transform="translate(-109.000000, -18.000000)">
            <g id="Group-70" transform="translate(108.000000, 18.000000)">
                <path d="M108.965575,30.8146121 L106.614004,15.0363264 C106.364939,13.286555 105.454654,12.9186479 104.732746,12.9186479 C103.726375,12.9186479 102.974125,13.5811336 102.610011,14.7847336 L98.6667036,27.5755121 L94.8194821,14.7897907 C94.336525,13.1171407 93.3124536,12.8680764 92.7447893,12.8680764 C91.6929036,12.8680764 91.0430607,13.5950407 90.814225,15.0312693 L88.3147321,30.7362264 C88.2818607,30.8740336 88.2818607,31.0017264 88.2818607,31.1142479 C88.2818607,31.8412121 88.7420607,32.2912979 89.4829321,32.2912979 C90.6119393,32.2912979 90.7585964,31.3076836 90.8066393,30.9852907 L92.9268464,16.994705 L97.2734607,31.0055193 C97.6097607,32.0890121 98.1875393,32.3153193 98.6136036,32.3153193 C98.9612821,32.3153193 99.5972179,32.145905 99.9512179,31.0093121 L104.459661,17.0199907 L106.418039,31.0093121 C106.544468,31.8601764 106.990761,32.2912979 107.743011,32.2912979 C108.468711,32.2912979 108.994654,31.7754693 108.994654,31.0636764 C108.994654,30.995405 108.984539,30.9410407 108.975689,30.8993193 L108.965575,30.8146121 Z" id="Fill-1" fill="#009EE3"></path>
                <path d="M115.096855,11.8304771 C114.210591,11.8304771 113.516498,12.52457 113.516498,13.4108343 C113.516498,14.2970986 114.210591,14.9911914 115.096855,14.9911914 C115.983119,14.9911914 116.677212,14.2970986 116.677212,13.4108343 C116.677212,12.52457 115.983119,11.8304771 115.096855,11.8304771" id="Fill-3" fill="#009EE3"></path>
                <path d="M115.147426,17.318615 C114.352191,17.318615 113.895784,17.7750221 113.895784,18.5702579 L113.895784,31.0639293 C113.895784,31.859165 114.361041,32.3155721 115.173976,32.3155721 C115.984384,32.3155721 116.449641,31.859165 116.449641,31.0639293 L116.449641,18.5702579 C116.449641,17.7750221 115.974269,17.318615 115.147426,17.318615" id="Fill-5" fill="#009EE3"></path>
                <path d="M127.154474,17.1914279 C125.757439,17.1914279 124.534874,17.7350707 123.676424,18.709835 C123.662517,17.8943707 123.220017,17.444285 122.424781,17.444285 C121.645981,17.444285 121.198424,17.9196564 121.198424,18.7464993 L121.198424,31.0897207 C121.198424,31.8685207 121.645981,32.3160779 122.424781,32.3160779 C123.231396,32.3160779 123.676424,31.8798993 123.676424,31.0897207 L123.676424,23.1474779 C123.676424,20.7579779 125.322524,19.6706921 126.851046,19.6706921 C128.331524,19.6706921 129.92326,20.7579779 129.92326,23.1474779 L129.92326,31.0897207 C129.92326,31.8685207 130.370817,32.3160779 131.150881,32.3160779 C131.957496,32.3160779 132.40126,31.8798993 132.40126,31.0897207 L132.40126,22.338335 C132.40126,19.1156707 129.733617,17.1914279 127.154474,17.1914279" id="Fill-7" fill="#009EE3"></path>
                <path d="M143.081566,20.0495986 C143.889445,20.0495986 144.333209,19.6323843 144.333209,18.8738129 C144.333209,18.4351057 144.163795,17.6980271 143.030995,17.6980271 L141.120659,17.6980271 L141.120659,15.9394057 C141.120659,15.1492271 140.676895,14.7130486 139.869016,14.7130486 C139.090216,14.7130486 138.642659,15.1606057 138.642659,15.9394057 L138.642659,17.6980271 L138.023159,17.6980271 C137.324009,17.6980271 136.923231,18.11777 136.923231,18.8485271 C136.923231,19.5969843 137.369524,20.0243129 138.149588,20.0243129 L138.642659,20.0243129 L138.642659,27.47222 C138.642659,30.1057271 139.128145,32.54327 142.651709,32.54327 C143.941281,32.54327 144.080352,31.7037843 144.080352,31.3421986 C144.080352,30.9957843 143.941281,30.1904343 142.651709,30.1904343 C141.321681,30.1904343 141.120659,29.57852 141.120659,27.47222 L141.120659,20.0495986 L143.081566,20.0495986 Z" id="Fill-9" fill="#009EE3"></path>
                <path d="M151.541408,23.7165329 C151.679215,21.4243829 153.318994,19.6708186 155.388629,19.6708186 C157.407694,19.6708186 158.842658,21.3194471 158.958972,23.7165329 L151.541408,23.7165329 Z M161.471108,23.8050329 C161.471108,19.7732257 159.052529,17.1662686 155.311508,17.1662686 C151.131779,17.1662686 148.876294,21.1614114 148.876294,24.9176043 C148.876294,29.4525971 151.689329,32.6196329 155.717344,32.6196329 C158.068915,32.6196329 159.895808,31.8218686 161.124694,30.2756471 C161.304222,30.0973829 161.395251,29.8521114 161.395251,29.5461543 C161.395251,28.8330971 160.943901,28.3716329 160.244751,28.3716329 C159.785815,28.3716329 159.311708,28.5675971 158.946329,28.9051614 C157.915936,29.8217686 157.132079,30.1163471 155.717344,30.1163471 C153.734944,30.1163471 151.718408,28.17314 151.521179,26.1692471 L159.737772,26.1692471 C161.337094,26.1692471 161.471108,25.0023114 161.471108,23.8050329 L161.471108,23.8050329 Z" id="Fill-11" fill="#009EE3"></path>
                <path d="M176.246815,29.2058086 C176.135558,29.2058086 175.919365,29.2273014 175.742365,29.3600514 C174.950922,29.8948443 174.058336,30.1666657 173.086101,30.1666657 C170.582815,30.1666657 168.546051,27.8922157 168.546051,25.0956157 C168.546051,22.0651229 170.381794,19.9487086 173.008979,19.9487086 C173.746058,19.9487086 174.928165,20.1977729 175.665244,20.51258 C175.739836,20.53913 175.883965,20.5808514 176.019244,20.5808514 C176.686786,20.5808514 177.169744,20.04353 177.169744,19.3039229 C177.169744,18.8551014 176.770229,18.3961657 176.126708,18.10538 C174.990115,17.5819657 173.789044,17.52128 172.984958,17.52128 C168.998665,17.52128 165.992194,20.7224514 165.992194,24.9679229 C165.992194,29.2437371 169.085901,32.5940943 173.035529,32.5940943 C174.280851,32.5940943 175.504679,32.2261871 176.593229,31.5143943 C176.905508,31.2703871 177.322722,30.8797229 177.322722,30.3310229 C177.322722,29.6875014 176.753794,29.2058086 176.246815,29.2058086" id="Fill-13" fill="#009EE3"></path>
                <path d="M26.0351329,8.66243 C24.51799,8.66243 23.2853114,9.89258 23.2853114,11.4122514 C23.2853114,12.9306586 24.51799,14.1620729 26.0351329,14.1620729 C27.55354,14.1620729 28.7849543,12.9306586 28.7849543,11.4122514 C28.7849543,9.89258 27.55354,8.66243 26.0351329,8.66243" id="Fill-16" fill="#132638"></path>
                <path d="M6.78929071,26.315525 C5.19123357,26.315525 3.89407643,27.6126821 3.89407643,29.2107393 C3.89407643,30.8100607 5.19123357,32.1046893 6.78929071,32.1046893 C8.38861214,32.1046893 9.684505,30.8100607 9.684505,29.2107393 C9.684505,27.6126821 8.38861214,26.315525 6.78929071,26.315525" id="Fill-18" fill="#132638"></path>
                <path d="M48.7613007,6.05357643 C47.9610079,6.05357643 47.3136936,6.702155 47.3136936,7.50118357 C47.3136936,8.30021214 47.9610079,8.94752643 48.7613007,8.94752643 C49.5615936,8.94752643 50.2089079,8.30021214 50.2089079,7.50118357 C50.2089079,6.702155 49.5615936,6.05357643 48.7613007,6.05357643" id="Fill-20" fill="#132638"></path>
                <path d="M58.8916429,24.8684236 C58.0926143,24.8684236 57.4440357,25.5170021 57.4440357,26.3160307 C57.4440357,27.1150593 58.0926143,27.7636379 58.8916429,27.7636379 C59.6919357,27.7636379 60.3405143,27.1150593 60.3405143,26.3160307 C60.3405143,25.5170021 59.6919357,24.8684236 58.8916429,24.8684236" id="Fill-22" fill="#132638"></path>
                <path d="M36.0191971,13.4008464 C36.56284,13.996325 36.8966114,14.7865036 36.8966114,15.6563321 C36.8966114,17.5135679 35.3921114,19.0168036 33.53614,19.0168036 C32.5727543,19.0168036 31.70419,18.607175 31.0910114,17.9573321 C30.34129,19.3720679 29.9139614,20.9852964 29.9139614,22.6984036 C29.9139614,28.2916036 34.4502186,32.8278607 40.0446829,32.8278607 C45.6404114,32.8278607 50.1766686,28.2916036 50.1766686,22.6984036 C50.1766686,17.102675 45.6404114,12.5664179 40.0446829,12.5664179 C38.6147757,12.5664179 37.2544043,12.8647893 36.0191971,13.4008464 Z" id="Fill-24" fill="#132638"></path>
                <path d="M38.6298207,7.50055143 C39.4301136,7.50055143 40.0774279,6.85323714 40.0774279,6.05294429 C40.0774279,5.25391571 39.4301136,4.60660143 38.6298207,4.60660143 C37.8307921,4.60660143 37.1822136,5.25391571 37.1822136,6.05294429 C37.1822136,6.85323714 37.8307921,7.50055143 38.6298207,7.50055143" id="Fill-26" fill="#132638"></path>
                <path d="M2.446975,9.67234143 C2.446975,9.27282714 2.12331786,8.94790571 1.72380357,8.94790571 C1.32428929,8.94790571 0.999367857,9.27282714 0.999367857,9.67234143 C0.999367857,10.0705914 1.32428929,10.3955129 1.72380357,10.3955129 C2.12331786,10.3955129 2.446975,10.0705914 2.446975,9.67234143" id="Fill-28" fill="#132638"></path>
                <path d="M12.5785814,30.6577143 C11.7782886,30.6577143 11.1309743,31.3062929 11.1309743,32.1053214 C11.1309743,32.90435 11.7782886,33.5516643 12.5785814,33.5516643 C13.3788743,33.5516643 14.0261886,32.90435 14.0261886,32.1053214 C14.0261886,31.3062929 13.3788743,30.6577143 12.5785814,30.6577143" id="Fill-31" fill="#132638"></path>
                <path d="M62.5104079,34.0691364 C61.7113793,34.0691364 61.0628007,34.717715 61.0628007,35.5167436 C61.0628007,36.3145079 61.7113793,36.9630864 62.5104079,36.9630864 C63.3094364,36.9630864 63.958015,36.3145079 63.958015,35.5167436 C63.958015,34.717715 63.3094364,34.0691364 62.5104079,34.0691364" id="Fill-33" fill="#132638"></path>
                <path d="M61.7869836,21.9744736 C61.7869836,21.1741807 61.138405,20.5256021 60.3381121,20.5256021 C59.5403479,20.5256021 58.8930336,21.1741807 58.8930336,21.9744736 C58.8930336,22.7735021 59.5403479,23.4220807 60.3381121,23.4220807 C61.138405,23.4220807 61.7869836,22.7735021 61.7869836,21.9744736" id="Fill-35" fill="#132638"></path>
                <path d="M46.8352879,4.85098786 C47.2335379,4.85098786 47.5584593,4.52733071 47.5584593,4.12781643 C47.5584593,3.72703786 47.2335379,3.40338071 46.8352879,3.40338071 C46.4357736,3.40338071 46.1121164,3.72703786 46.1121164,4.12781643 C46.1121164,4.52733071 46.4357736,4.85098786 46.8352879,4.85098786" id="Fill-37" fill="#132638"></path>
                <path d="M21.2630864,33.5517907 C20.4627936,33.5517907 19.814215,34.2003693 19.814215,35.0006621 C19.814215,35.7984264 20.4627936,36.447005 21.2630864,36.447005 C22.062115,36.447005 22.7106936,35.7984264 22.7106936,35.0006621 C22.7106936,34.2003693 22.062115,33.5517907 21.2630864,33.5517907" id="Fill-39" fill="#132638"></path>
                <path d="M6.41025786,23.24369 C6.41025786,21.8378043 5.27113643,20.6974186 3.86398643,20.6974186 C2.45683643,20.6974186 1.31897929,21.8378043 1.31897929,23.24369 C1.31897929,24.6495757 2.45683643,25.7912257 3.86398643,25.7912257 C5.27113643,25.7912257 6.41025786,24.6495757 6.41025786,23.24369" id="Fill-41" fill="#132638"></path>
                <path d="M55.2728779,16.1851829 C54.8746279,16.1851829 54.5509707,16.50884 54.5509707,16.9083543 C54.5509707,17.3078686 54.8746279,17.63279 55.2728779,17.63279 C55.6723921,17.63279 55.9973136,17.3078686 55.9973136,16.9083543 C55.9973136,16.50884 55.6723921,16.1851829 55.2728779,16.1851829" id="Fill-43" fill="#132638"></path>
                <path d="M51.5479129,35.5161114 C51.1483986,35.5161114 50.8247414,35.8410329 50.8247414,36.2392829 C50.8247414,36.6400614 51.1483986,36.9637186 51.5479129,36.9637186 C51.9474271,36.9637186 52.2723486,36.6400614 52.2723486,36.2392829 C52.2723486,35.8410329 51.9474271,35.5161114 51.5479129,35.5161114" id="Fill-45" fill="#132638"></path>
                <path d="M19.0914229,11.8428671 C17.0938514,11.8428671 15.4730371,13.4624171 15.4730371,15.4612529 C15.4730371,17.4588243 17.0938514,19.0796386 19.0914229,19.0796386 C21.0902586,19.0796386 22.7098086,17.4588243 22.7098086,15.4612529 C22.7098086,13.4624171 21.0902586,11.8428671 19.0914229,11.8428671" id="Fill-47" fill="#132638"></path>
                <path d="M12.9822679,23.2449543 C12.9822679,21.6456329 11.6876393,20.34974 10.0883179,20.34974 C8.48899643,20.34974 7.19310357,21.6456329 7.19310357,23.2449543 C7.19310357,24.8442757 8.48899643,26.1389043 10.0883179,26.1389043 C11.6876393,26.1389043 12.9822679,24.8442757 12.9822679,23.2449543" id="Fill-49" fill="#132638"></path>
                <path d="M18.3678721,24.8684236 C17.5688436,24.8684236 16.920265,25.5157379 16.920265,26.3160307 C16.920265,27.1150593 17.5688436,27.7636379 18.3678721,27.7636379 C19.1669007,27.7636379 19.8154793,27.1150593 19.8154793,26.3160307 C19.8154793,25.5157379 19.1669007,24.8684236 18.3678721,24.8684236" id="Fill-51" fill="#132638"></path>
                <path d="M16.9208971,1.71126071 C16.9208971,0.912232143 16.2723186,0.263653571 15.4720257,0.263653571 C14.6742614,0.263653571 14.0256829,0.912232143 14.0256829,1.71126071 C14.0256829,2.51155357 14.6742614,3.16013214 15.4720257,3.16013214 C16.2723186,3.16013214 16.9208971,2.51155357 16.9208971,1.71126071" id="Fill-53" fill="#132638"></path>
                <path d="M61.0634329,11.8428671 C59.0658614,11.8428671 57.4450471,13.4624171 57.4450471,15.4612529 C57.4450471,17.4588243 59.0658614,19.0796386 61.0634329,19.0796386 C63.0610043,19.0796386 64.6805543,17.4588243 64.6805543,15.4612529 C64.6805543,13.4624171 63.0610043,11.8428671 61.0634329,11.8428671" id="Fill-56" fill="#132638"></path>
                <path d="M73.365565,26.315525 C71.7675079,26.315525 70.471615,27.6126821 70.471615,29.2107393 C70.471615,30.8100607 71.7675079,32.1046893 73.365565,32.1046893 C74.9636221,32.1046893 76.259515,30.8100607 76.259515,29.2107393 C76.259515,27.6126821 74.9636221,26.315525 73.365565,26.315525" id="Fill-58" fill="#132638"></path>
                <path d="M69.0232493,4.60660143 C69.8235421,4.60660143 70.4721207,3.95802286 70.4721207,3.15773 C70.4721207,2.35996571 69.8235421,1.71138714 69.0232493,1.71138714 C68.2242207,1.71138714 67.5756421,2.35996571 67.5756421,3.15773 C67.5756421,3.95802286 68.2242207,4.60660143 69.0232493,4.60660143" id="Fill-60" fill="#132638"></path>
                <path d="M32.9799807,37.0260479 C31.7005236,37.0260479 30.6638093,38.0627621 30.6638093,39.340955 C30.6638093,40.6204121 31.7005236,41.6571264 32.9799807,41.6571264 C34.2581736,41.6571264 35.2948879,40.6204121 35.2948879,39.340955 C35.2948879,38.0627621 34.2581736,37.0260479 32.9799807,37.0260479" id="Fill-62" fill="#132638"></path>
                <path d="M47.1119136,37.0260479 C45.8324564,37.0260479 44.7957421,38.0627621 44.7957421,39.340955 C44.7957421,40.6204121 45.8324564,41.6571264 47.1119136,41.6571264 C48.3913707,41.6571264 49.428085,40.6204121 49.428085,39.340955 C49.428085,38.0627621 48.3913707,37.0260479 47.1119136,37.0260479" id="Fill-64" fill="#132638"></path>
                <path d="M69.0232493,19.2508229 C68.2242207,19.2508229 67.5756421,19.8994014 67.5756421,20.69843 C67.5756421,21.4974586 68.2242207,22.1460371 69.0232493,22.1460371 C69.8222779,22.1460371 70.4721207,21.4974586 70.4721207,20.69843 C70.4721207,19.8994014 69.8222779,19.2508229 69.0232493,19.2508229" id="Fill-66" fill="#132638"></path>
                <path d="M26.3276886,36.2396621 C25.9294386,36.2396621 25.6045171,36.5645836 25.6045171,36.9628336 C25.6045171,37.3636121 25.9294386,37.6872693 26.3276886,37.6872693 C26.7272029,37.6872693 27.05086,37.3636121 27.05086,36.9628336 C27.05086,36.5645836 26.7272029,36.2396621 26.3276886,36.2396621" id="Fill-68" fill="#132638"></path>
            </g>
        </g>
    </g>
</svg>